<mxfile host="app.diagrams.net" modified="2024-05-19T11:09:04.626Z" agent="Mozilla/5.0 (Windows NT 10.0; Win64; x64) AppleWebKit/537.36 (KHTML, like Gecko) Chrome/123.0.0.0 Safari/537.36 OPR/109.0.0.0 (Edition Yx GX 03)" etag="RUxNdE-DILuxh1SvfS3y" version="24.4.4" type="device">
  <diagram name="Страница — 1" id="cv2ymmJAmKZnUDtIrMp9">
    <mxGraphModel dx="3149" dy="1277" grid="1" gridSize="10" guides="1" tooltips="1" connect="1" arrows="1" fold="1" page="1" pageScale="1" pageWidth="827" pageHeight="1169" math="0" shadow="0">
      <root>
        <mxCell id="0" />
        <mxCell id="1" parent="0" />
        <mxCell id="6uyw6dKu6RwX-WBxmhZI-29" style="rounded=0;orthogonalLoop=1;jettySize=auto;html=1;entryX=0.5;entryY=0;entryDx=0;entryDy=0;dashed=1;endArrow=open;endFill=0;" edge="1" parent="1" source="6uyw6dKu6RwX-WBxmhZI-1" target="6uyw6dKu6RwX-WBxmhZI-13">
          <mxGeometry relative="1" as="geometry" />
        </mxCell>
        <mxCell id="6uyw6dKu6RwX-WBxmhZI-1" value="Заказ клиента" style="swimlane;fontSize=15;startSize=40;" vertex="1" parent="1">
          <mxGeometry x="210" y="290" width="480" height="170" as="geometry" />
        </mxCell>
        <mxCell id="6uyw6dKu6RwX-WBxmhZI-5" value="&lt;div style=&quot;text-align: justify; font-size: 16px;&quot;&gt;&lt;b style=&quot;background-color: initial;&quot;&gt;&lt;font style=&quot;font-size: 16px;&quot; color=&quot;#ff0303&quot;&gt;- Список товаров: Заказ клиента&lt;/font&gt;&lt;/b&gt;&lt;/div&gt;&lt;div style=&quot;font-size: 16px;&quot;&gt;&lt;div style=&quot;text-align: justify;&quot;&gt;&lt;font style=&quot;font-size: 16px;&quot; color=&quot;#ff0303&quot;&gt;&lt;b style=&quot;background-color: initial;&quot;&gt;-&amp;nbsp;&lt;/b&gt;&lt;b style=&quot;background-color: initial;&quot;&gt;Контактная информация: Заказ клиента&lt;/b&gt;&lt;/font&gt;&lt;/div&gt;&lt;b&gt;&lt;div style=&quot;text-align: justify;&quot;&gt;&lt;font style=&quot;font-size: 16px;&quot; color=&quot;#ff0303&quot;&gt;&lt;b style=&quot;background-color: initial;&quot;&gt;-&amp;nbsp;&lt;/b&gt;&lt;b style=&quot;background-color: initial;&quot;&gt;Способ оплаты: string&lt;/b&gt;&lt;/font&gt;&lt;/div&gt;&lt;/b&gt;&lt;/div&gt;&lt;div style=&quot;text-align: justify; font-size: 16px;&quot;&gt;&lt;font style=&quot;font-size: 16px;&quot; color=&quot;#ff0303&quot;&gt;&lt;b style=&quot;background-color: initial;&quot;&gt;-&amp;nbsp;&lt;/b&gt;&lt;b&gt;&lt;font style=&quot;font-size: 16px;&quot;&gt;Способ доставки: string&lt;/font&gt;&lt;/b&gt;&lt;/font&gt;&lt;/div&gt;&lt;div style=&quot;text-align: justify; font-size: 16px;&quot;&gt;&lt;font style=&quot;font-size: 16px;&quot; color=&quot;#ff0303&quot;&gt;&lt;b style=&quot;background-color: initial;&quot;&gt;-&amp;nbsp;&lt;/b&gt;&lt;b style=&quot;&quot;&gt;&lt;font style=&quot;font-size: 16px;&quot;&gt;Комментарии: string&lt;/font&gt;&lt;/b&gt;&lt;/font&gt;&lt;/div&gt;" style="text;html=1;align=center;verticalAlign=middle;resizable=0;points=[];autosize=1;strokeColor=none;fillColor=none;" vertex="1" parent="6uyw6dKu6RwX-WBxmhZI-1">
          <mxGeometry x="40" y="50" width="350" height="110" as="geometry" />
        </mxCell>
        <mxCell id="6uyw6dKu6RwX-WBxmhZI-6" value="Список товаров" style="swimlane;fontSize=15;startSize=40;" vertex="1" parent="1">
          <mxGeometry x="710" y="530" width="480" height="170" as="geometry" />
        </mxCell>
        <mxCell id="6uyw6dKu6RwX-WBxmhZI-8" value="&lt;div style=&quot;text-wrap: nowrap; text-align: justify; font-size: 19px;&quot;&gt;&lt;u style=&quot;background-color: initial; text-wrap: wrap; caret-color: rgb(0, 87, 206);&quot;&gt;&lt;b style=&quot;&quot;&gt;&lt;font face=&quot;Helvetica&quot; style=&quot;font-size: 19px;&quot; color=&quot;#ff0d0d&quot;&gt;&lt;span style=&quot;box-sizing: border-box;&quot; class=&quot;ng-star-inserted&quot;&gt;&lt;span style=&quot;box-sizing: border-box;&quot; class=&quot;ng-star-inserted&quot;&gt;- I&lt;/span&gt;&lt;span style=&quot;box-sizing: border-box;&quot; class=&quot;ng-star-inserted&quot;&gt;D&lt;/span&gt;&lt;span style=&quot;box-sizing: border-box;&quot; class=&quot;ng-star-inserted&quot;&gt;&amp;nbsp;&lt;/span&gt;&lt;span style=&quot;box-sizing: border-box;&quot; class=&quot;ng-star-inserted&quot;&gt;т&lt;/span&gt;&lt;span style=&quot;box-sizing: border-box;&quot; class=&quot;ng-star-inserted&quot;&gt;о&lt;/span&gt;&lt;span style=&quot;box-sizing: border-box;&quot; class=&quot;ng-star-inserted&quot;&gt;в&lt;/span&gt;&lt;span style=&quot;box-sizing: border-box;&quot; class=&quot;ng-star-inserted&quot;&gt;а&lt;/span&gt;&lt;span style=&quot;box-sizing: border-box;&quot; class=&quot;ng-star-inserted&quot;&gt;р&lt;/span&gt;&lt;span style=&quot;box-sizing: border-box;&quot; class=&quot;ng-star-inserted&quot;&gt;а&lt;/span&gt;&lt;span style=&quot;box-sizing: border-box;&quot; class=&quot;ng-star-inserted&quot;&gt;&amp;nbsp;&lt;/span&gt;&lt;span style=&quot;box-sizing: border-box;&quot; class=&quot;ng-star-inserted&quot;&gt;:&lt;/span&gt;&lt;/span&gt;&lt;span style=&quot;box-sizing: border-box;&quot; class=&quot;ng-star-inserted&quot;&gt;&amp;nbsp;int&lt;/span&gt;&lt;/font&gt;&lt;/b&gt;&lt;/u&gt;&lt;/div&gt;&lt;font style=&quot;font-size: 19px;&quot;&gt;&lt;u style=&quot;background-color: initial; caret-color: rgb(0, 87, 206);&quot;&gt;&lt;div style=&quot;text-align: justify;&quot;&gt;&lt;u style=&quot;background-color: initial;&quot;&gt;&lt;b style=&quot;&quot;&gt;&lt;font face=&quot;Helvetica&quot; style=&quot;font-size: 19px;&quot; color=&quot;#ff0d0d&quot;&gt;&lt;span style=&quot;box-sizing: border-box;&quot; class=&quot;ng-star-inserted&quot;&gt;-&amp;nbsp;&lt;/span&gt;&lt;span style=&quot;box-sizing: border-box;&quot; class=&quot;ng-star-inserted&quot;&gt;Н&lt;/span&gt;&lt;span style=&quot;box-sizing: border-box;&quot; class=&quot;ng-star-inserted&quot;&gt;а&lt;/span&gt;&lt;span style=&quot;box-sizing: border-box;&quot; class=&quot;ng-star-inserted&quot;&gt;з&lt;/span&gt;&lt;span style=&quot;box-sizing: border-box;&quot; class=&quot;ng-star-inserted&quot;&gt;в&lt;/span&gt;&lt;span style=&quot;box-sizing: border-box;&quot; class=&quot;ng-star-inserted&quot;&gt;а&lt;/span&gt;&lt;span style=&quot;box-sizing: border-box;&quot; class=&quot;ng-star-inserted&quot;&gt;н&lt;/span&gt;&lt;span style=&quot;box-sizing: border-box;&quot; class=&quot;ng-star-inserted&quot;&gt;и&lt;/span&gt;&lt;span style=&quot;box-sizing: border-box;&quot; class=&quot;ng-star-inserted&quot;&gt;е&lt;/span&gt;&lt;span style=&quot;box-sizing: border-box;&quot; class=&quot;ng-star-inserted&quot;&gt;&amp;nbsp;&lt;/span&gt;&lt;span style=&quot;box-sizing: border-box;&quot; class=&quot;ng-star-inserted&quot;&gt;т&lt;/span&gt;&lt;span style=&quot;box-sizing: border-box;&quot; class=&quot;ng-star-inserted&quot;&gt;о&lt;/span&gt;&lt;span style=&quot;box-sizing: border-box;&quot; class=&quot;ng-star-inserted&quot;&gt;в&lt;/span&gt;&lt;span style=&quot;box-sizing: border-box;&quot; class=&quot;ng-star-inserted&quot;&gt;а&lt;/span&gt;&lt;span style=&quot;box-sizing: border-box;&quot; class=&quot;ng-star-inserted&quot;&gt;р&lt;/span&gt;&lt;span style=&quot;box-sizing: border-box;&quot; class=&quot;ng-star-inserted&quot;&gt;а : string&lt;/span&gt;&lt;/font&gt;&lt;/b&gt;&lt;/u&gt;&lt;/div&gt;&lt;/u&gt;&lt;u style=&quot;background-color: initial; caret-color: rgb(0, 87, 206);&quot;&gt;&lt;div style=&quot;text-align: justify;&quot;&gt;&lt;u style=&quot;background-color: initial;&quot;&gt;&lt;b style=&quot;&quot;&gt;&lt;font face=&quot;Helvetica&quot; style=&quot;font-size: 19px;&quot; color=&quot;#ff0d0d&quot;&gt;&lt;span style=&quot;box-sizing: border-box;&quot; class=&quot;ng-star-inserted&quot;&gt;-&lt;/span&gt;&lt;span style=&quot;box-sizing: border-box;&quot; class=&quot;ng-star-inserted&quot;&gt;К&lt;/span&gt;&lt;span style=&quot;box-sizing: border-box;&quot; class=&quot;ng-star-inserted&quot;&gt;о&lt;/span&gt;&lt;span style=&quot;box-sizing: border-box;&quot; class=&quot;ng-star-inserted&quot;&gt;л&lt;/span&gt;&lt;span style=&quot;box-sizing: border-box;&quot; class=&quot;ng-star-inserted&quot;&gt;и&lt;/span&gt;&lt;span style=&quot;box-sizing: border-box;&quot; class=&quot;ng-star-inserted&quot;&gt;ч&lt;/span&gt;&lt;span style=&quot;box-sizing: border-box;&quot; class=&quot;ng-star-inserted&quot;&gt;е&lt;/span&gt;&lt;span style=&quot;box-sizing: border-box;&quot; class=&quot;ng-star-inserted&quot;&gt;с&lt;/span&gt;&lt;span style=&quot;box-sizing: border-box;&quot; class=&quot;ng-star-inserted&quot;&gt;т&lt;/span&gt;&lt;span style=&quot;box-sizing: border-box;&quot; class=&quot;ng-star-inserted&quot;&gt;в&lt;/span&gt;&lt;span style=&quot;box-sizing: border-box;&quot; class=&quot;ng-star-inserted&quot;&gt;о&lt;/span&gt;&lt;span style=&quot;box-sizing: border-box;&quot; class=&quot;ng-star-inserted&quot;&gt;&amp;nbsp;&lt;/span&gt;&lt;span style=&quot;box-sizing: border-box;&quot; class=&quot;ng-star-inserted&quot;&gt;з&lt;/span&gt;&lt;span style=&quot;box-sizing: border-box;&quot; class=&quot;ng-star-inserted&quot;&gt;а&lt;/span&gt;&lt;span style=&quot;box-sizing: border-box;&quot; class=&quot;ng-star-inserted&quot;&gt;к&lt;/span&gt;&lt;span style=&quot;box-sizing: border-box;&quot; class=&quot;ng-star-inserted&quot;&gt;а&lt;/span&gt;&lt;span style=&quot;box-sizing: border-box;&quot; class=&quot;ng-star-inserted&quot;&gt;з&lt;/span&gt;&lt;span style=&quot;box-sizing: border-box;&quot; class=&quot;ng-star-inserted&quot;&gt;ы&lt;/span&gt;&lt;span style=&quot;box-sizing: border-box;&quot; class=&quot;ng-star-inserted&quot;&gt;в&lt;/span&gt;&lt;span style=&quot;box-sizing: border-box;&quot; class=&quot;ng-star-inserted&quot;&gt;а&lt;/span&gt;&lt;span style=&quot;box-sizing: border-box;&quot; class=&quot;ng-star-inserted&quot;&gt;е&lt;/span&gt;&lt;span style=&quot;box-sizing: border-box;&quot; class=&quot;ng-star-inserted&quot;&gt;м&lt;/span&gt;&lt;span style=&quot;box-sizing: border-box;&quot; class=&quot;ng-star-inserted&quot;&gt;о&lt;/span&gt;&lt;span style=&quot;box-sizing: border-box;&quot; class=&quot;ng-star-inserted&quot;&gt;г&lt;/span&gt;&lt;span style=&quot;box-sizing: border-box;&quot; class=&quot;ng-star-inserted&quot;&gt;о&lt;/span&gt;&lt;span style=&quot;box-sizing: border-box;&quot; class=&quot;ng-star-inserted&quot;&gt;&amp;nbsp;&lt;/span&gt;&lt;span style=&quot;box-sizing: border-box;&quot; class=&quot;ng-star-inserted&quot;&gt;т&lt;/span&gt;&lt;span style=&quot;box-sizing: border-box;&quot; class=&quot;ng-star-inserted&quot;&gt;о&lt;/span&gt;&lt;span style=&quot;box-sizing: border-box;&quot; class=&quot;ng-star-inserted&quot;&gt;в&lt;/span&gt;&lt;span style=&quot;box-sizing: border-box;&quot; class=&quot;ng-star-inserted&quot;&gt;а&lt;/span&gt;&lt;span style=&quot;box-sizing: border-box;&quot; class=&quot;ng-star-inserted&quot;&gt;р&lt;/span&gt;&lt;span style=&quot;box-sizing: border-box;&quot; class=&quot;ng-star-inserted&quot;&gt;а : int&lt;/span&gt;&lt;/font&gt;&lt;/b&gt;&lt;/u&gt;&lt;/div&gt;&lt;/u&gt;&lt;/font&gt;" style="text;html=1;align=center;verticalAlign=middle;whiteSpace=wrap;rounded=0;" vertex="1" parent="6uyw6dKu6RwX-WBxmhZI-6">
          <mxGeometry x="25" y="50" width="430" height="110" as="geometry" />
        </mxCell>
        <mxCell id="6uyw6dKu6RwX-WBxmhZI-9" value="Контактная информация" style="swimlane;fontSize=15;startSize=40;" vertex="1" parent="1">
          <mxGeometry x="-290" y="540" width="550" height="170" as="geometry" />
        </mxCell>
        <mxCell id="6uyw6dKu6RwX-WBxmhZI-10" value="&lt;div style=&quot;text-wrap: nowrap; text-align: justify; font-size: 19px;&quot;&gt;&lt;font face=&quot;Helvetica&quot;&gt;&lt;b style=&quot;font-size: 16px; color: rgb(229, 30, 30); text-align: left; caret-color: rgb(0, 87, 206); text-wrap: wrap;&quot;&gt;&lt;span style=&quot;box-sizing: border-box;&quot; class=&quot;ng-star-inserted&quot;&gt;&lt;span style=&quot;box-sizing: border-box;&quot; class=&quot;ng-star-inserted&quot;&gt;- Ф&lt;/span&gt;&lt;span style=&quot;box-sizing: border-box;&quot; class=&quot;ng-star-inserted&quot;&gt;И&lt;/span&gt;&lt;span style=&quot;box-sizing: border-box;&quot; class=&quot;ng-star-inserted&quot;&gt;О&lt;/span&gt;&lt;span style=&quot;box-sizing: border-box;&quot; class=&quot;ng-star-inserted&quot;&gt;&amp;nbsp;&lt;/span&gt;&lt;span style=&quot;box-sizing: border-box;&quot; class=&quot;ng-star-inserted&quot;&gt;к&lt;/span&gt;&lt;span style=&quot;box-sizing: border-box;&quot; class=&quot;ng-star-inserted&quot;&gt;л&lt;/span&gt;&lt;span style=&quot;box-sizing: border-box;&quot; class=&quot;ng-star-inserted&quot;&gt;и&lt;/span&gt;&lt;span style=&quot;box-sizing: border-box;&quot; class=&quot;ng-star-inserted&quot;&gt;е&lt;/span&gt;&lt;span style=&quot;box-sizing: border-box;&quot; class=&quot;ng-star-inserted&quot;&gt;н&lt;/span&gt;&lt;span style=&quot;box-sizing: border-box;&quot; class=&quot;ng-star-inserted&quot;&gt;т&lt;/span&gt;&lt;span style=&quot;box-sizing: border-box;&quot; class=&quot;ng-star-inserted&quot;&gt;а&lt;/span&gt;&lt;span style=&quot;box-sizing: border-box;&quot; class=&quot;ng-star-inserted&quot;&gt;:&lt;/span&gt;&lt;/span&gt;&lt;span style=&quot;box-sizing: border-box;&quot; class=&quot;ng-star-inserted&quot;&gt;&amp;nbsp;string&lt;/span&gt;&lt;/b&gt;&lt;br&gt;&lt;b style=&quot;font-size: 16px; color: rgb(229, 30, 30); text-align: left; caret-color: rgb(0, 87, 206); text-wrap: wrap;&quot;&gt;&lt;span style=&quot;box-sizing: border-box;&quot; class=&quot;ng-star-inserted&quot;&gt;- Н&lt;/span&gt;&lt;span style=&quot;box-sizing: border-box;&quot; class=&quot;ng-star-inserted&quot;&gt;о&lt;/span&gt;&lt;span style=&quot;box-sizing: border-box;&quot; class=&quot;ng-star-inserted&quot;&gt;м&lt;/span&gt;&lt;span style=&quot;box-sizing: border-box;&quot; class=&quot;ng-star-inserted&quot;&gt;е&lt;/span&gt;&lt;span style=&quot;box-sizing: border-box;&quot; class=&quot;ng-star-inserted&quot;&gt;р&lt;/span&gt;&lt;span style=&quot;box-sizing: border-box;&quot; class=&quot;ng-star-inserted&quot;&gt;&amp;nbsp;&lt;/span&gt;&lt;span style=&quot;box-sizing: border-box;&quot; class=&quot;ng-star-inserted&quot;&gt;т&lt;/span&gt;&lt;span style=&quot;box-sizing: border-box;&quot; class=&quot;ng-star-inserted&quot;&gt;е&lt;/span&gt;&lt;span style=&quot;box-sizing: border-box;&quot; class=&quot;ng-star-inserted&quot;&gt;л&lt;/span&gt;&lt;span style=&quot;box-sizing: border-box;&quot; class=&quot;ng-star-inserted&quot;&gt;е&lt;/span&gt;&lt;span style=&quot;box-sizing: border-box;&quot; class=&quot;ng-star-inserted&quot;&gt;ф&lt;/span&gt;&lt;span style=&quot;box-sizing: border-box;&quot; class=&quot;ng-star-inserted&quot;&gt;о&lt;/span&gt;&lt;span style=&quot;box-sizing: border-box;&quot; class=&quot;ng-star-inserted&quot;&gt;н&lt;/span&gt;&lt;span style=&quot;box-sizing: border-box;&quot; class=&quot;ng-star-inserted&quot;&gt;а&lt;/span&gt;&lt;span style=&quot;box-sizing: border-box;&quot; class=&quot;ng-star-inserted&quot;&gt;&amp;nbsp;&lt;/span&gt;&lt;span style=&quot;box-sizing: border-box;&quot; class=&quot;ng-star-inserted&quot;&gt;к&lt;/span&gt;&lt;span style=&quot;box-sizing: border-box;&quot; class=&quot;ng-star-inserted&quot;&gt;л&lt;/span&gt;&lt;span style=&quot;box-sizing: border-box;&quot; class=&quot;ng-star-inserted&quot;&gt;и&lt;/span&gt;&lt;span style=&quot;box-sizing: border-box;&quot; class=&quot;ng-star-inserted&quot;&gt;е&lt;/span&gt;&lt;span style=&quot;box-sizing: border-box;&quot; class=&quot;ng-star-inserted&quot;&gt;н&lt;/span&gt;&lt;span style=&quot;box-sizing: border-box;&quot; class=&quot;ng-star-inserted&quot;&gt;т&lt;/span&gt;&lt;span style=&quot;box-sizing: border-box;&quot; class=&quot;ng-star-inserted&quot;&gt;а: string&lt;/span&gt;&lt;/b&gt;&lt;br&gt;&lt;b style=&quot;font-size: 16px; color: rgb(229, 30, 30); text-align: left; caret-color: rgb(0, 87, 206); text-wrap: wrap;&quot;&gt;&lt;span style=&quot;box-sizing: border-box;&quot; class=&quot;ng-star-inserted&quot;&gt;- Эл&lt;/span&gt;&lt;span style=&quot;box-sizing: border-box;&quot; class=&quot;ng-star-inserted&quot;&gt;е&lt;/span&gt;&lt;span style=&quot;box-sizing: border-box;&quot; class=&quot;ng-star-inserted&quot;&gt;к&lt;/span&gt;&lt;span style=&quot;box-sizing: border-box;&quot; class=&quot;ng-star-inserted&quot;&gt;т&lt;/span&gt;&lt;span style=&quot;box-sizing: border-box;&quot; class=&quot;ng-star-inserted&quot;&gt;р&lt;/span&gt;&lt;span style=&quot;box-sizing: border-box;&quot; class=&quot;ng-star-inserted&quot;&gt;о&lt;/span&gt;&lt;span style=&quot;box-sizing: border-box;&quot; class=&quot;ng-star-inserted&quot;&gt;н&lt;/span&gt;&lt;span style=&quot;box-sizing: border-box;&quot; class=&quot;ng-star-inserted&quot;&gt;н&lt;/span&gt;&lt;span style=&quot;box-sizing: border-box;&quot; class=&quot;ng-star-inserted&quot;&gt;ы&lt;/span&gt;&lt;span style=&quot;box-sizing: border-box;&quot; class=&quot;ng-star-inserted&quot;&gt;й&lt;/span&gt;&lt;span style=&quot;box-sizing: border-box;&quot; class=&quot;ng-star-inserted&quot;&gt;&amp;nbsp;&lt;/span&gt;&lt;span style=&quot;box-sizing: border-box;&quot; class=&quot;ng-star-inserted&quot;&gt;а&lt;/span&gt;&lt;span style=&quot;box-sizing: border-box;&quot; class=&quot;ng-star-inserted&quot;&gt;д&lt;/span&gt;&lt;span style=&quot;box-sizing: border-box;&quot; class=&quot;ng-star-inserted&quot;&gt;р&lt;/span&gt;&lt;span style=&quot;box-sizing: border-box;&quot; class=&quot;ng-star-inserted&quot;&gt;е&lt;/span&gt;&lt;span style=&quot;box-sizing: border-box;&quot; class=&quot;ng-star-inserted&quot;&gt;с&lt;/span&gt;&lt;span style=&quot;box-sizing: border-box;&quot; class=&quot;ng-star-inserted&quot;&gt;&amp;nbsp;&lt;/span&gt;&lt;span style=&quot;box-sizing: border-box;&quot; class=&quot;ng-star-inserted&quot;&gt;к&lt;/span&gt;&lt;span style=&quot;box-sizing: border-box;&quot; class=&quot;ng-star-inserted&quot;&gt;л&lt;/span&gt;&lt;span style=&quot;box-sizing: border-box;&quot; class=&quot;ng-star-inserted&quot;&gt;и&lt;/span&gt;&lt;span style=&quot;box-sizing: border-box;&quot; class=&quot;ng-star-inserted&quot;&gt;е&lt;/span&gt;&lt;span style=&quot;box-sizing: border-box;&quot; class=&quot;ng-star-inserted&quot;&gt;н&lt;/span&gt;&lt;span style=&quot;box-sizing: border-box;&quot; class=&quot;ng-star-inserted&quot;&gt;т&lt;/span&gt;&lt;span style=&quot;box-sizing: border-box;&quot; class=&quot;ng-star-inserted&quot;&gt;а: string&lt;/span&gt;&lt;/b&gt;&lt;br&gt;&lt;b style=&quot;font-size: 16px; color: rgb(229, 30, 30); text-align: left; caret-color: rgb(0, 87, 206); text-wrap: wrap;&quot;&gt;&lt;span style=&quot;box-sizing: border-box;&quot; class=&quot;ng-star-inserted&quot;&gt;- А&lt;/span&gt;&lt;span style=&quot;box-sizing: border-box;&quot; class=&quot;ng-star-inserted&quot;&gt;д&lt;/span&gt;&lt;span style=&quot;box-sizing: border-box;&quot; class=&quot;ng-star-inserted&quot;&gt;р&lt;/span&gt;&lt;span style=&quot;box-sizing: border-box;&quot; class=&quot;ng-star-inserted&quot;&gt;е&lt;/span&gt;&lt;span style=&quot;box-sizing: border-box;&quot; class=&quot;ng-star-inserted&quot;&gt;с&lt;/span&gt;&lt;span style=&quot;box-sizing: border-box;&quot; class=&quot;ng-star-inserted&quot;&gt;&amp;nbsp;&lt;/span&gt;&lt;span style=&quot;box-sizing: border-box;&quot; class=&quot;ng-star-inserted&quot;&gt;д&lt;/span&gt;&lt;span style=&quot;box-sizing: border-box;&quot; class=&quot;ng-star-inserted&quot;&gt;о&lt;/span&gt;&lt;span style=&quot;box-sizing: border-box;&quot; class=&quot;ng-star-inserted&quot;&gt;с&lt;/span&gt;&lt;span style=&quot;box-sizing: border-box;&quot; class=&quot;ng-star-inserted&quot;&gt;т&lt;/span&gt;&lt;span style=&quot;box-sizing: border-box;&quot; class=&quot;ng-star-inserted&quot;&gt;а&lt;/span&gt;&lt;span style=&quot;box-sizing: border-box;&quot; class=&quot;ng-star-inserted&quot;&gt;в&lt;/span&gt;&lt;span style=&quot;box-sizing: border-box;&quot; class=&quot;ng-star-inserted&quot;&gt;к&lt;/span&gt;&lt;span style=&quot;box-sizing: border-box;&quot; class=&quot;ng-star-inserted&quot;&gt;и&lt;/span&gt;&lt;span style=&quot;box-sizing: border-box;&quot; class=&quot;ng-star-inserted&quot;&gt;&amp;nbsp;&lt;/span&gt;&lt;span style=&quot;box-sizing: border-box;&quot; class=&quot;ng-star-inserted&quot;&gt;з&lt;/span&gt;&lt;span style=&quot;box-sizing: border-box;&quot; class=&quot;ng-star-inserted&quot;&gt;а&lt;/span&gt;&lt;span style=&quot;box-sizing: border-box;&quot; class=&quot;ng-star-inserted&quot;&gt;к&lt;/span&gt;&lt;span style=&quot;box-sizing: border-box;&quot; class=&quot;ng-star-inserted&quot;&gt;а&lt;/span&gt;&lt;span style=&quot;box-sizing: border-box;&quot; class=&quot;ng-star-inserted&quot;&gt;з&lt;/span&gt;&lt;span style=&quot;box-sizing: border-box;&quot; class=&quot;ng-star-inserted&quot;&gt;а: string&lt;/span&gt;&lt;/b&gt;&lt;/font&gt;&lt;br&gt;&lt;/div&gt;" style="text;html=1;align=center;verticalAlign=middle;whiteSpace=wrap;rounded=0;" vertex="1" parent="6uyw6dKu6RwX-WBxmhZI-9">
          <mxGeometry x="25" y="50" width="525" height="110" as="geometry" />
        </mxCell>
        <mxCell id="6uyw6dKu6RwX-WBxmhZI-13" value="Проверенный заказ" style="swimlane;fontSize=15;startSize=40;" vertex="1" parent="1">
          <mxGeometry x="220" y="750" width="480" height="170" as="geometry" />
        </mxCell>
        <mxCell id="6uyw6dKu6RwX-WBxmhZI-14" value="&lt;div style=&quot;text-align: justify; font-size: 16px;&quot;&gt;&lt;font color=&quot;#ff0303&quot;&gt;&lt;b&gt;- Заказ клиента: Заказ Клиента&lt;/b&gt;&lt;/font&gt;&lt;/div&gt;&lt;div style=&quot;text-align: justify; font-size: 16px;&quot;&gt;&lt;font color=&quot;#ff0303&quot;&gt;&lt;b&gt;- Статус заказа: string&lt;/b&gt;&lt;/font&gt;&lt;/div&gt;" style="text;html=1;align=center;verticalAlign=middle;resizable=0;points=[];autosize=1;strokeColor=none;fillColor=none;" vertex="1" parent="6uyw6dKu6RwX-WBxmhZI-13">
          <mxGeometry x="80" y="80" width="270" height="50" as="geometry" />
        </mxCell>
        <mxCell id="6uyw6dKu6RwX-WBxmhZI-15" value="Сформированный заказ" style="swimlane;fontSize=15;startSize=40;" vertex="1" parent="1">
          <mxGeometry x="220" y="970" width="480" height="170" as="geometry" />
        </mxCell>
        <mxCell id="6uyw6dKu6RwX-WBxmhZI-16" value="&lt;div style=&quot;text-align: justify; font-size: 16px;&quot;&gt;&lt;font style=&quot;font-size: 16px;&quot; color=&quot;#ff0303&quot;&gt;&lt;b style=&quot;&quot;&gt;- Проверенный заказ: Проверенный заказ&lt;/b&gt;&lt;/font&gt;&lt;/div&gt;&lt;div style=&quot;text-align: justify; font-size: 16px;&quot;&gt;&lt;font style=&quot;font-size: 16px;&quot; color=&quot;#ff0303&quot;&gt;&lt;b&gt;- Номер заказа: int&lt;/b&gt;&lt;/font&gt;&lt;/div&gt;&lt;div style=&quot;text-align: justify; font-size: 16px;&quot;&gt;&lt;font style=&quot;font-size: 16px;&quot; color=&quot;#ff0303&quot;&gt;&lt;b&gt;- Дата формирования: DateTime&lt;/b&gt;&lt;/font&gt;&lt;/div&gt;&lt;div style=&quot;text-align: justify; font-size: 16px;&quot;&gt;&lt;font style=&quot;font-size: 16px;&quot; color=&quot;#ff0303&quot;&gt;&lt;b style=&quot;&quot;&gt;- Статус заказа: string&lt;/b&gt;&lt;/font&gt;&lt;/div&gt;" style="text;html=1;align=center;verticalAlign=middle;resizable=0;points=[];autosize=1;strokeColor=none;fillColor=none;" vertex="1" parent="6uyw6dKu6RwX-WBxmhZI-15">
          <mxGeometry x="35" y="60" width="360" height="90" as="geometry" />
        </mxCell>
        <mxCell id="6uyw6dKu6RwX-WBxmhZI-17" value="Оплата заказа" style="swimlane;fontSize=15;startSize=40;" vertex="1" parent="1">
          <mxGeometry x="220" y="1210" width="480" height="170" as="geometry" />
        </mxCell>
        <mxCell id="6uyw6dKu6RwX-WBxmhZI-18" value="&lt;div style=&quot;text-align: justify; font-size: 16px;&quot;&gt;&lt;font style=&quot;font-size: 16px;&quot; color=&quot;#ff0303&quot;&gt;&lt;b style=&quot;&quot;&gt;- Номер заказа: Сформированный заказ&lt;/b&gt;&lt;/font&gt;&lt;/div&gt;&lt;div style=&quot;text-align: justify; font-size: 16px;&quot;&gt;&lt;font style=&quot;font-size: 16px;&quot; color=&quot;#ff0303&quot;&gt;&lt;b&gt;- Сумма оплаты: decimal&lt;/b&gt;&lt;/font&gt;&lt;/div&gt;&lt;div style=&quot;text-align: justify; font-size: 16px;&quot;&gt;&lt;font style=&quot;font-size: 16px;&quot; color=&quot;#ff0303&quot;&gt;&lt;b&gt;- Дата оплаты: DateTime&lt;/b&gt;&lt;/font&gt;&lt;/div&gt;&lt;div style=&quot;text-align: justify; font-size: 16px;&quot;&gt;&lt;font style=&quot;font-size: 16px;&quot; color=&quot;#ff0303&quot;&gt;&lt;b style=&quot;&quot;&gt;- Способ оплаты: string&lt;/b&gt;&lt;/font&gt;&lt;/div&gt;" style="text;html=1;align=center;verticalAlign=middle;resizable=0;points=[];autosize=1;strokeColor=none;fillColor=none;" vertex="1" parent="6uyw6dKu6RwX-WBxmhZI-17">
          <mxGeometry x="45" y="60" width="340" height="90" as="geometry" />
        </mxCell>
        <mxCell id="6uyw6dKu6RwX-WBxmhZI-19" value="Укомплектованный заказ" style="swimlane;fontSize=15;startSize=40;" vertex="1" parent="1">
          <mxGeometry x="220" y="1450" width="480" height="170" as="geometry" />
        </mxCell>
        <mxCell id="6uyw6dKu6RwX-WBxmhZI-20" value="&lt;div style=&quot;text-align: justify; font-size: 16px;&quot;&gt;&lt;font style=&quot;font-size: 16px;&quot; color=&quot;#ff0303&quot;&gt;&lt;b style=&quot;&quot;&gt;- Сформированный заказ: Сформированный заказ&lt;/b&gt;&lt;/font&gt;&lt;/div&gt;&lt;div style=&quot;text-align: justify; font-size: 16px;&quot;&gt;&lt;font style=&quot;font-size: 16px;&quot; color=&quot;#ff0303&quot;&gt;&lt;b&gt;- Статус: string&lt;br&gt;&lt;/b&gt;&lt;/font&gt;&lt;/div&gt;" style="text;html=1;align=center;verticalAlign=middle;resizable=0;points=[];autosize=1;strokeColor=none;fillColor=none;" vertex="1" parent="6uyw6dKu6RwX-WBxmhZI-19">
          <mxGeometry x="29" y="80" width="430" height="50" as="geometry" />
        </mxCell>
        <mxCell id="6uyw6dKu6RwX-WBxmhZI-23" value="Доставленный заказ" style="swimlane;fontSize=15;startSize=40;" vertex="1" parent="1">
          <mxGeometry x="210" y="1700" width="480" height="170" as="geometry" />
        </mxCell>
        <mxCell id="6uyw6dKu6RwX-WBxmhZI-24" value="&lt;div style=&quot;text-align: justify; font-size: 16px;&quot;&gt;&lt;font style=&quot;font-size: 16px;&quot; color=&quot;#ff0303&quot;&gt;&lt;b style=&quot;&quot;&gt;-&lt;/b&gt;&lt;/font&gt;&lt;b style=&quot;background-color: initial; color: rgb(255, 3, 3);&quot;&gt;&amp;nbsp;Сформированный заказ: Сформированный заказ&lt;/b&gt;&lt;/div&gt;&lt;div style=&quot;text-align: justify; font-size: 16px;&quot;&gt;&lt;font style=&quot;font-size: 16px;&quot; color=&quot;#ff0303&quot;&gt;&lt;b&gt;- Статус: string&lt;/b&gt;&lt;/font&gt;&lt;/div&gt;&lt;div style=&quot;text-align: justify; font-size: 16px;&quot;&gt;&lt;font style=&quot;font-size: 16px;&quot; color=&quot;#ff0303&quot;&gt;&lt;b&gt;- Дата доставки: DateTime&lt;/b&gt;&lt;/font&gt;&lt;/div&gt;" style="text;html=1;align=center;verticalAlign=middle;resizable=0;points=[];autosize=1;strokeColor=none;fillColor=none;" vertex="1" parent="6uyw6dKu6RwX-WBxmhZI-23">
          <mxGeometry x="25" y="70" width="430" height="70" as="geometry" />
        </mxCell>
        <mxCell id="6uyw6dKu6RwX-WBxmhZI-25" value="Полученный заказ" style="swimlane;fontSize=15;startSize=40;" vertex="1" parent="1">
          <mxGeometry x="210" y="1920" width="480" height="170" as="geometry" />
        </mxCell>
        <mxCell id="6uyw6dKu6RwX-WBxmhZI-26" value="&lt;div style=&quot;text-align: justify; font-size: 16px;&quot;&gt;&lt;font style=&quot;font-size: 16px;&quot; color=&quot;#ff0303&quot;&gt;&lt;b style=&quot;&quot;&gt;-&lt;/b&gt;&lt;/font&gt;&lt;b style=&quot;background-color: initial; color: rgb(255, 3, 3);&quot;&gt;&amp;nbsp;Сформированный заказ: Сформированный заказ&lt;/b&gt;&lt;/div&gt;&lt;div style=&quot;text-align: justify; font-size: 16px;&quot;&gt;&lt;font style=&quot;font-size: 16px;&quot; color=&quot;#ff0303&quot;&gt;&lt;b&gt;- Статус: string&lt;/b&gt;&lt;/font&gt;&lt;/div&gt;" style="text;html=1;align=center;verticalAlign=middle;resizable=0;points=[];autosize=1;strokeColor=none;fillColor=none;" vertex="1" parent="6uyw6dKu6RwX-WBxmhZI-25">
          <mxGeometry x="25" y="80" width="430" height="50" as="geometry" />
        </mxCell>
        <mxCell id="6uyw6dKu6RwX-WBxmhZI-27" style="rounded=0;orthogonalLoop=1;jettySize=auto;html=1;entryX=0.75;entryY=0;entryDx=0;entryDy=0;endArrow=open;endFill=0;dashed=1;" edge="1" parent="1" source="6uyw6dKu6RwX-WBxmhZI-5" target="6uyw6dKu6RwX-WBxmhZI-9">
          <mxGeometry relative="1" as="geometry" />
        </mxCell>
        <mxCell id="6uyw6dKu6RwX-WBxmhZI-28" style="rounded=0;orthogonalLoop=1;jettySize=auto;html=1;entryX=0.024;entryY=0.01;entryDx=0;entryDy=0;endArrow=open;endFill=0;dashed=1;exitX=0.75;exitY=1;exitDx=0;exitDy=0;entryPerimeter=0;" edge="1" parent="1" source="6uyw6dKu6RwX-WBxmhZI-1" target="6uyw6dKu6RwX-WBxmhZI-6">
          <mxGeometry relative="1" as="geometry">
            <mxPoint x="320" y="460" as="sourcePoint" />
            <mxPoint x="132" y="550" as="targetPoint" />
          </mxGeometry>
        </mxCell>
        <mxCell id="6uyw6dKu6RwX-WBxmhZI-30" style="rounded=0;orthogonalLoop=1;jettySize=auto;html=1;entryX=0.5;entryY=0;entryDx=0;entryDy=0;dashed=1;endArrow=open;endFill=0;exitX=0.5;exitY=1;exitDx=0;exitDy=0;" edge="1" parent="1" source="6uyw6dKu6RwX-WBxmhZI-13" target="6uyw6dKu6RwX-WBxmhZI-15">
          <mxGeometry relative="1" as="geometry">
            <mxPoint x="462" y="470" as="sourcePoint" />
            <mxPoint x="470" y="740" as="targetPoint" />
          </mxGeometry>
        </mxCell>
        <mxCell id="6uyw6dKu6RwX-WBxmhZI-31" style="rounded=0;orthogonalLoop=1;jettySize=auto;html=1;entryX=0.5;entryY=0;entryDx=0;entryDy=0;dashed=1;endArrow=open;endFill=0;exitX=0.5;exitY=1;exitDx=0;exitDy=0;" edge="1" parent="1" source="6uyw6dKu6RwX-WBxmhZI-15" target="6uyw6dKu6RwX-WBxmhZI-17">
          <mxGeometry relative="1" as="geometry">
            <mxPoint x="470" y="910" as="sourcePoint" />
            <mxPoint x="470" y="980" as="targetPoint" />
          </mxGeometry>
        </mxCell>
        <mxCell id="6uyw6dKu6RwX-WBxmhZI-33" style="rounded=0;orthogonalLoop=1;jettySize=auto;html=1;entryX=0.5;entryY=0;entryDx=0;entryDy=0;dashed=1;endArrow=open;endFill=0;exitX=0.5;exitY=1;exitDx=0;exitDy=0;" edge="1" parent="1" source="6uyw6dKu6RwX-WBxmhZI-17" target="6uyw6dKu6RwX-WBxmhZI-19">
          <mxGeometry relative="1" as="geometry">
            <mxPoint x="470" y="1150" as="sourcePoint" />
            <mxPoint x="470" y="1220" as="targetPoint" />
          </mxGeometry>
        </mxCell>
        <mxCell id="6uyw6dKu6RwX-WBxmhZI-34" style="rounded=0;orthogonalLoop=1;jettySize=auto;html=1;entryX=0.5;entryY=0;entryDx=0;entryDy=0;dashed=1;endArrow=open;endFill=0;" edge="1" parent="1" target="6uyw6dKu6RwX-WBxmhZI-23">
          <mxGeometry relative="1" as="geometry">
            <mxPoint x="450" y="1620" as="sourcePoint" />
            <mxPoint x="470" y="1460" as="targetPoint" />
          </mxGeometry>
        </mxCell>
        <mxCell id="6uyw6dKu6RwX-WBxmhZI-35" style="rounded=0;orthogonalLoop=1;jettySize=auto;html=1;entryX=0.5;entryY=0;entryDx=0;entryDy=0;dashed=1;endArrow=open;endFill=0;exitX=0.5;exitY=1;exitDx=0;exitDy=0;" edge="1" parent="1" source="6uyw6dKu6RwX-WBxmhZI-23" target="6uyw6dKu6RwX-WBxmhZI-25">
          <mxGeometry relative="1" as="geometry">
            <mxPoint x="460" y="1630" as="sourcePoint" />
            <mxPoint x="460" y="1710" as="targetPoint" />
          </mxGeometry>
        </mxCell>
      </root>
    </mxGraphModel>
  </diagram>
</mxfile>
